<mxfile host="app.diagrams.net" modified="2021-09-25T10:07:35.979Z" agent="5.0 (Windows NT 10.0; Win64; x64) AppleWebKit/537.36 (KHTML, like Gecko) Chrome/93.0.4577.82 Safari/537.36" etag="FutPbXuKBHpKHZ9iLnfv" version="15.3.1" type="github">
  <diagram id="zER7RIJuj6WG3A7nTJ_Q" name="Page-1">
    <mxGraphModel dx="981" dy="552" grid="1" gridSize="10" guides="1" tooltips="1" connect="1" arrows="1" fold="1" page="1" pageScale="1" pageWidth="827" pageHeight="1169" math="0" shadow="0">
      <root>
        <mxCell id="0" />
        <mxCell id="1" parent="0" />
        <mxCell id="W1L9Sqc4smEFqr-cX30E-14" style="edgeStyle=orthogonalEdgeStyle;rounded=0;orthogonalLoop=1;jettySize=auto;html=1;entryX=0;entryY=0.63;entryDx=0;entryDy=0;entryPerimeter=0;" edge="1" parent="1" source="W1L9Sqc4smEFqr-cX30E-1" target="W1L9Sqc4smEFqr-cX30E-4">
          <mxGeometry relative="1" as="geometry" />
        </mxCell>
        <mxCell id="W1L9Sqc4smEFqr-cX30E-1" value="FW" style="rounded=0;whiteSpace=wrap;html=1;" vertex="1" parent="1">
          <mxGeometry x="320" y="250" width="120" height="60" as="geometry" />
        </mxCell>
        <mxCell id="W1L9Sqc4smEFqr-cX30E-13" style="edgeStyle=orthogonalEdgeStyle;rounded=0;orthogonalLoop=1;jettySize=auto;html=1;entryX=0.038;entryY=0.021;entryDx=0;entryDy=0;entryPerimeter=0;" edge="1" parent="1" source="W1L9Sqc4smEFqr-cX30E-2" target="W1L9Sqc4smEFqr-cX30E-1">
          <mxGeometry relative="1" as="geometry" />
        </mxCell>
        <mxCell id="W1L9Sqc4smEFqr-cX30E-2" value="Web application" style="rounded=0;whiteSpace=wrap;html=1;" vertex="1" parent="1">
          <mxGeometry x="150" y="180" width="120" height="60" as="geometry" />
        </mxCell>
        <mxCell id="W1L9Sqc4smEFqr-cX30E-10" style="edgeStyle=orthogonalEdgeStyle;rounded=0;orthogonalLoop=1;jettySize=auto;html=1;entryX=0;entryY=0.5;entryDx=0;entryDy=0;" edge="1" parent="1" source="W1L9Sqc4smEFqr-cX30E-3" target="W1L9Sqc4smEFqr-cX30E-1">
          <mxGeometry relative="1" as="geometry" />
        </mxCell>
        <mxCell id="W1L9Sqc4smEFqr-cX30E-3" value="DB" style="rounded=0;whiteSpace=wrap;html=1;" vertex="1" parent="1">
          <mxGeometry x="130" y="360" width="120" height="60" as="geometry" />
        </mxCell>
        <mxCell id="W1L9Sqc4smEFqr-cX30E-15" style="edgeStyle=orthogonalEdgeStyle;rounded=0;orthogonalLoop=1;jettySize=auto;html=1;entryX=0.5;entryY=0;entryDx=0;entryDy=0;" edge="1" parent="1" source="W1L9Sqc4smEFqr-cX30E-4" target="W1L9Sqc4smEFqr-cX30E-5">
          <mxGeometry relative="1" as="geometry" />
        </mxCell>
        <mxCell id="W1L9Sqc4smEFqr-cX30E-4" value="FW2" style="rounded=0;whiteSpace=wrap;html=1;" vertex="1" parent="1">
          <mxGeometry x="510" y="310" width="120" height="60" as="geometry" />
        </mxCell>
        <mxCell id="W1L9Sqc4smEFqr-cX30E-5" value="DB2" style="rounded=0;whiteSpace=wrap;html=1;" vertex="1" parent="1">
          <mxGeometry x="610" y="430" width="120" height="60" as="geometry" />
        </mxCell>
        <mxCell id="W1L9Sqc4smEFqr-cX30E-6" value="Security baseline" style="text;html=1;strokeColor=none;fillColor=none;align=center;verticalAlign=middle;whiteSpace=wrap;rounded=0;" vertex="1" parent="1">
          <mxGeometry x="298" y="100" width="96" height="30" as="geometry" />
        </mxCell>
        <mxCell id="W1L9Sqc4smEFqr-cX30E-11" style="edgeStyle=orthogonalEdgeStyle;rounded=0;orthogonalLoop=1;jettySize=auto;html=1;entryX=0.5;entryY=1;entryDx=0;entryDy=0;" edge="1" parent="1" source="W1L9Sqc4smEFqr-cX30E-7" target="W1L9Sqc4smEFqr-cX30E-1">
          <mxGeometry relative="1" as="geometry">
            <mxPoint x="380" y="320.0000000000001" as="targetPoint" />
          </mxGeometry>
        </mxCell>
        <mxCell id="W1L9Sqc4smEFqr-cX30E-7" value="Admin&lt;br&gt;" style="rounded=0;whiteSpace=wrap;html=1;" vertex="1" parent="1">
          <mxGeometry x="274" y="460" width="120" height="60" as="geometry" />
        </mxCell>
        <mxCell id="W1L9Sqc4smEFqr-cX30E-12" style="edgeStyle=orthogonalEdgeStyle;rounded=0;orthogonalLoop=1;jettySize=auto;html=1;" edge="1" parent="1" source="W1L9Sqc4smEFqr-cX30E-8" target="W1L9Sqc4smEFqr-cX30E-1">
          <mxGeometry relative="1" as="geometry" />
        </mxCell>
        <mxCell id="W1L9Sqc4smEFqr-cX30E-8" value="Microsoft service" style="rounded=0;whiteSpace=wrap;html=1;" vertex="1" parent="1">
          <mxGeometry x="530" y="140" width="120" height="60" as="geometry" />
        </mxCell>
        <mxCell id="W1L9Sqc4smEFqr-cX30E-18" style="edgeStyle=orthogonalEdgeStyle;rounded=0;orthogonalLoop=1;jettySize=auto;html=1;entryX=0.75;entryY=0;entryDx=0;entryDy=0;" edge="1" parent="1" source="W1L9Sqc4smEFqr-cX30E-16" target="W1L9Sqc4smEFqr-cX30E-1">
          <mxGeometry relative="1" as="geometry" />
        </mxCell>
        <mxCell id="W1L9Sqc4smEFqr-cX30E-16" value="Users" style="rounded=1;whiteSpace=wrap;html=1;" vertex="1" parent="1">
          <mxGeometry x="490" y="210" width="70" height="40" as="geometry" />
        </mxCell>
      </root>
    </mxGraphModel>
  </diagram>
</mxfile>
